<svg width="100" height="100" viewBox="0 0 100 100" fill="none" xmlns="http://www.w3.org/2000/svg">
<path d="M16.6667 20.8334C16.6667 21.9384 17.1057 22.9982 17.8871 23.7796C18.6685 24.561 19.7283 25 20.8334 25C21.9385 25 22.9983 24.561 23.7797 23.7796C24.5611 22.9982 25.0001 21.9384 25.0001 20.8334C25.0001 19.7283 24.5611 18.6685 23.7797 17.8871C22.9983 17.1057 21.9385 16.6667 20.8334 16.6667C19.7283 16.6667 18.6685 17.1057 17.8871 17.8871C17.1057 18.6685 16.6667 19.7283 16.6667 20.8334Z" stroke="#7E57A3" stroke-width="2" stroke-linecap="round" stroke-linejoin="round"/>
<path d="M45.8334 20.8334C45.8334 21.9384 46.2724 22.9982 47.0538 23.7796C47.8352 24.561 48.895 25 50.0001 25C51.1052 25 52.165 24.561 52.9464 23.7796C53.7278 22.9982 54.1668 21.9384 54.1668 20.8334C54.1668 19.7283 53.7278 18.6685 52.9464 17.8871C52.165 17.1057 51.1052 16.6667 50.0001 16.6667C48.895 16.6667 47.8352 17.1057 47.0538 17.8871C46.2724 18.6685 45.8334 19.7283 45.8334 20.8334Z" stroke="#7E57A3" stroke-width="2" stroke-linecap="round" stroke-linejoin="round"/>
<path d="M75.0001 20.8334C75.0001 21.9384 75.4391 22.9982 76.2205 23.7796C77.0019 24.561 78.0617 25 79.1668 25C80.2718 25 81.3316 24.561 82.113 23.7796C82.8944 22.9982 83.3334 21.9384 83.3334 20.8334C83.3334 19.7283 82.8944 18.6685 82.113 17.8871C81.3316 17.1057 80.2718 16.6667 79.1668 16.6667C78.0617 16.6667 77.0019 17.1057 76.2205 17.8871C75.4391 18.6685 75.0001 19.7283 75.0001 20.8334Z" stroke="#7E57A3" stroke-width="2" stroke-linecap="round" stroke-linejoin="round"/>
<path d="M16.6667 50C16.6667 51.1051 17.1057 52.1649 17.8871 52.9463C18.6685 53.7277 19.7283 54.1667 20.8334 54.1667C21.9385 54.1667 22.9983 53.7277 23.7797 52.9463C24.5611 52.1649 25.0001 51.1051 25.0001 50C25.0001 48.895 24.5611 47.8351 23.7797 47.0537C22.9983 46.2723 21.9385 45.8334 20.8334 45.8334C19.7283 45.8334 18.6685 46.2723 17.8871 47.0537C17.1057 47.8351 16.6667 48.895 16.6667 50Z" stroke="#7E57A3" stroke-width="2" stroke-linecap="round" stroke-linejoin="round"/>
<path d="M45.8334 50C45.8334 51.1051 46.2724 52.1649 47.0538 52.9463C47.8352 53.7277 48.895 54.1667 50.0001 54.1667C51.1052 54.1667 52.165 53.7277 52.9464 52.9463C53.7278 52.1649 54.1668 51.1051 54.1668 50C54.1668 48.895 53.7278 47.8351 52.9464 47.0537C52.165 46.2723 51.1052 45.8334 50.0001 45.8334C48.895 45.8334 47.8352 46.2723 47.0538 47.0537C46.2724 47.8351 45.8334 48.895 45.8334 50Z" stroke="#7E57A3" stroke-width="2" stroke-linecap="round" stroke-linejoin="round"/>
<path d="M75.0001 50C75.0001 51.1051 75.4391 52.1649 76.2205 52.9463C77.0019 53.7277 78.0617 54.1667 79.1668 54.1667C80.2718 54.1667 81.3316 53.7277 82.113 52.9463C82.8944 52.1649 83.3334 51.1051 83.3334 50C83.3334 48.895 82.8944 47.8351 82.113 47.0537C81.3316 46.2723 80.2718 45.8334 79.1668 45.8334C78.0617 45.8334 77.0019 46.2723 76.2205 47.0537C75.4391 47.8351 75.0001 48.895 75.0001 50Z" stroke="#7E57A3" stroke-width="2" stroke-linecap="round" stroke-linejoin="round"/>
<path d="M16.6667 79.1667C16.6667 80.2718 17.1057 81.3316 17.8871 82.113C18.6685 82.8944 19.7283 83.3334 20.8334 83.3334C21.9385 83.3334 22.9983 82.8944 23.7797 82.113C24.5611 81.3316 25.0001 80.2718 25.0001 79.1667C25.0001 78.0616 24.5611 77.0018 23.7797 76.2204C22.9983 75.439 21.9385 75 20.8334 75C19.7283 75 18.6685 75.439 17.8871 76.2204C17.1057 77.0018 16.6667 78.0616 16.6667 79.1667Z" stroke="#7E57A3" stroke-width="2" stroke-linecap="round" stroke-linejoin="round"/>
<path d="M45.8334 79.1667C45.8334 80.2718 46.2724 81.3316 47.0538 82.113C47.8352 82.8944 48.895 83.3334 50.0001 83.3334C51.1052 83.3334 52.165 82.8944 52.9464 82.113C53.7278 81.3316 54.1668 80.2718 54.1668 79.1667C54.1668 78.0616 53.7278 77.0018 52.9464 76.2204C52.165 75.439 51.1052 75 50.0001 75C48.895 75 47.8352 75.439 47.0538 76.2204C46.2724 77.0018 45.8334 78.0616 45.8334 79.1667Z" stroke="#7E57A3" stroke-width="2" stroke-linecap="round" stroke-linejoin="round"/>
<path d="M75.0001 79.1667C75.0001 80.2718 75.4391 81.3316 76.2205 82.113C77.0019 82.8944 78.0617 83.3334 79.1668 83.3334C80.2718 83.3334 81.3316 82.8944 82.113 82.113C82.8944 81.3316 83.3334 80.2718 83.3334 79.1667C83.3334 78.0616 82.8944 77.0018 82.113 76.2204C81.3316 75.439 80.2718 75 79.1668 75C78.0617 75 77.0019 75.439 76.2205 76.2204C75.4391 77.0018 75.0001 78.0616 75.0001 79.1667Z" stroke="#7E57A3" stroke-width="2" stroke-linecap="round" stroke-linejoin="round"/>
</svg>
