<svg width="41" height="40" viewBox="0 0 41 40" fill="none" xmlns="http://www.w3.org/2000/svg">
<path d="M28.1666 12.5V12.5166M7.33325 13.3333C7.33325 11.5652 8.03563 9.86949 9.28587 8.61925C10.5361 7.369 12.2318 6.66663 13.9999 6.66663H27.3333C29.1014 6.66663 30.7971 7.369 32.0473 8.61925C33.2975 9.86949 33.9999 11.5652 33.9999 13.3333V26.6666C33.9999 28.4347 33.2975 30.1304 32.0473 31.3807C30.7971 32.6309 29.1014 33.3333 27.3333 33.3333H13.9999C12.2318 33.3333 10.5361 32.6309 9.28587 31.3807C8.03563 30.1304 7.33325 28.4347 7.33325 26.6666V13.3333ZM15.6666 20C15.6666 21.326 16.1934 22.5978 17.1311 23.5355C18.0687 24.4732 19.3405 25 20.6666 25C21.9927 25 23.2644 24.4732 24.2021 23.5355C25.1398 22.5978 25.6666 21.326 25.6666 20C25.6666 18.6739 25.1398 17.4021 24.2021 16.4644C23.2644 15.5267 21.9927 15 20.6666 15C19.3405 15 18.0687 15.5267 17.1311 16.4644C16.1934 17.4021 15.6666 18.6739 15.6666 20Z" stroke="white" stroke-width="2" stroke-linecap="round" stroke-linejoin="round"/>
</svg>
